<?xml version="1.0" standalone="no"?>
<!DOCTYPE svg PUBLIC "-//W3C//DTD SVG 20010904//EN"
 "http://www.w3.org/TR/2001/REC-SVG-20010904/DTD/svg10.dtd">
<svg version="1.0" xmlns="http://www.w3.org/2000/svg"
 width="400.000000pt" height="400.000000pt" viewBox="0 0 400.000000 400.000000"
 preserveAspectRatio="xMidYMid meet">
<metadata>
Created by potrace 1.11, written by Peter Selinger 2001-2013
</metadata>
<g transform="translate(0.000000,400.000000) scale(0.100000,-0.100000)"
fill="#000000" stroke="none">
<path d="M0 2000 l0 -2000 2000 0 2000 0 0 2000 0 2000 -2000 0 -2000 0 0
-2000z m2290 1675 c374 -66 731 -265 977 -545 459 -521 560 -1258 259 -1875
-415 -849 -1446 -1197 -2290 -773 -439 221 -762 624 -886 1106 -55 219 -64
516 -20 737 143 727 736 1273 1480 1365 105 13 367 4 480 -15z"/>
<path d="M1130 2786 c0 -43 0 -44 45 -55 69 -17 148 -58 183 -94 64 -66 66
-78 70 -538 2 -229 -1 -480 -7 -558 -14 -208 -32 -234 -183 -273 l-88 -23 0
-42 0 -43 345 0 345 0 0 43 0 43 -72 17 c-118 28 -153 50 -183 111 -37 75 -44
200 -45 706 0 331 3 412 13 402 6 -7 233 -311 502 -675 l491 -662 51 -3 51 -3
4 698 c5 766 6 775 64 834 21 21 52 35 117 51 l87 23 0 42 0 43 -340 0 -340 0
0 -43 0 -43 73 -18 c96 -22 152 -49 173 -81 41 -62 46 -121 51 -602 3 -261 2
-463 -3 -463 -5 0 -216 282 -469 625 l-460 625 -237 0 -238 0 0 -44z"/>
</g>
</svg>
